<svg xmlns="http://www.w3.org/2000/svg" width="120" height="120" viewBox="0 0 120 120">
  <defs>
    <linearGradient id="a" x1="0" y1="1" x2="1" y2="0">
      <stop offset="0" stop-color="#00E5FF"/>
      <stop offset="1" stop-color="#7C3AED"/>
    </linearGradient>
  </defs>
  <rect width="120" height="120" rx="28" fill="#0B1220"/>
  <path d="M25 60c0-19 16-35 35-35h9c19 0 35 16 35 35s-16 35-35 35h-9c-19 0-35-16-35-35Z" fill="url(#a)" opacity="0.22"/>
  <path d="M41 60c0-11 9-20 20-20h4c11 0 20 9 20 20s-9 20-20 20h-4c-11 0-20-9-20-20Z" fill="url(#a)"/>
  <circle cx="60" cy="60" r="5" fill="#0B1220"/>
</svg>