<svg xmlns="http://www.w3.org/2000/svg" viewBox="0 0 24 24">
  <path d="M12 18a6 6 0 1 0 0-12 6 6 0 0 0 0 12Zm0-16a1 1 0 0 1 1-1h0a1 1 0 0 1-1 1Zm0 22a1 1 0 0 1-1-1h0a1 1 0 0 1 1 1ZM2 13a1 1 0 0 1-1-1h0a1 1 0 0 1 1 1Zm22-1a1 1 0 0 1 1 1h0a1 1 0 0 1-1-1ZM4.22 5.64a1 1 0 0 1 0-1.41h0a1 1 0 0 1 1.41 0l.01.01a1 1 0 0 1-1.42 1.4Zm14.14 14.14a1 1 0 0 1 0 1.41h0a1 1 0 0 1-1.41 0l-.01-.01a1 1 0 0 1 1.42-1.4ZM19.78 4.22a1 1 0 0 1 1.41 0h0a1 1 0 0 1 0 1.41l-.01.01a1 1 0 0 1-1.4-1.42ZM5.64 18.36a1 1 0 0 1 0 1.41h0a1 1 0 0 1-1.41 0l-.01-.01a1 1 0 0 1 1.42-1.4Z" fill="currentColor"/>
</svg>