<svg xmlns="http://www.w3.org/2000/svg" width="1600" height="900" viewBox="0 0 1600 900">
  <defs>
    <linearGradient id="bg3" x1="0" x2="1" y1="0" y2="1">
      <stop offset="0" stop-color="#2563EB" stop-opacity="0.20"/>
      <stop offset="0.55" stop-color="#00B8D9" stop-opacity="0.16"/>
      <stop offset="1" stop-color="#7C3AED" stop-opacity="0.16"/>
    </linearGradient>
    <radialGradient id="glow3" cx="40%" cy="15%" r="70%">
      <stop offset="0" stop-color="#2563EB" stop-opacity="0.22"/>
      <stop offset="1" stop-color="#FFFFFF" stop-opacity="0"/>
    </radialGradient>
  </defs>
  <rect width="1600" height="900" fill="#F6F8FC"/>
  <rect width="1600" height="900" fill="url(#glow3)"/>
  <rect x="90" y="120" width="1420" height="660" rx="40" fill="url(#bg3)" stroke="#0A0E1C" stroke-opacity="0.08"/>

  <g transform="translate(380,250)" fill="none" stroke="#0A0E1C" stroke-opacity="0.52" stroke-width="12">
    <path d="M560 300c0-85-69-154-154-154-62 0-116 36-140 89-12-4-25-7-40-7-62 0-112 50-112 112 0 62 50 112 112 112h333c61 0 110-49 110-110 0-52-37-96-89-108z" />
  </g>

  <g opacity="0.9" stroke="#0A0E1C" stroke-opacity="0.10" fill="#FFFFFF">
    <rect x="230" y="590" width="340" height="120" rx="18"/>
    <rect x="610" y="590" width="340" height="120" rx="18"/>
    <rect x="990" y="590" width="380" height="120" rx="18"/>
  </g>
  <g font-family="system-ui, -apple-system, Segoe UI, Roboto" font-weight="950" fill="#0A0E1C" fill-opacity="0.84" font-size="30">
    <text x="270" y="665">IaC</text>
    <text x="650" y="665">CI/CD</text>
    <text x="1030" y="665">Observability</text>
  </g>

  <g fill="#00B8D9" opacity="0.95">
    <circle cx="530" cy="628" r="9"/>
    <circle cx="910" cy="628" r="9"/>
    <circle cx="1350" cy="628" r="9"/>
  </g>
</svg>
