<svg xmlns="http://www.w3.org/2000/svg" width="1400" height="800" viewBox="0 0 1400 800">
  <defs>
    <linearGradient id="p2" x1="0" x2="1" y1="0" y2="1">
      <stop offset="0" stop-color="#7C3AED" stop-opacity="0.14"/>
      <stop offset="0.5" stop-color="#00B8D9" stop-opacity="0.12"/>
      <stop offset="1" stop-color="#2563EB" stop-opacity="0.12"/>
    </linearGradient>
  </defs>
  <rect width="1400" height="800" fill="#FFFFFF"/>
  <rect x="70" y="70" width="1260" height="660" rx="34" fill="url(#p2)" opacity="0.95" stroke="#0A0E1C" stroke-opacity="0.10"/>

  <g fill="#FFFFFF" opacity="0.88" stroke="#0A0E1C" stroke-opacity="0.10" stroke-width="3">
    <rect x="170" y="250" width="320" height="110" rx="22"/>
    <rect x="540" y="250" width="320" height="110" rx="22"/>
    <rect x="910" y="250" width="320" height="110" rx="22"/>
    <rect x="355" y="430" width="320" height="110" rx="22"/>
    <rect x="725" y="430" width="320" height="110" rx="22"/>
  </g>

  <g stroke="#0A0E1C" stroke-opacity="0.35" stroke-width="6" fill="none">
    <path d="M490 305H540"/>
    <path d="M860 305H910"/>
    <path d="M650 360V430"/>
    <path d="M1020 360V430"/>
    <path d="M515 485H725"/>
  </g>

  <g font-family="system-ui, -apple-system, Segoe UI, Roboto" font-weight="950" fill="#0A0E1C" fill-opacity="0.88">
    <text x="180" y="180" font-size="54">Orquestación</text>
    <text x="180" y="230" font-size="30" fill-opacity="0.62">Workflows • QA • Observability</text>
  </g>

  <g font-family="ui-monospace, SFMono-Regular, Menlo, Monaco, Consolas" font-weight="900" fill="#0A0E1C" fill-opacity="0.86" font-size="26">
    <text x="210" y="315">Extract</text>
    <text x="585" y="315">Transform</text>
    <text x="975" y="315">Load</text>
    <text x="410" y="495">Tests</text>
    <text x="785" y="495">Alerts</text>
  </g>

  <g fill="#00B8D9" opacity="0.9">
    <circle cx="330" cy="278" r="8"/>
    <circle cx="700" cy="278" r="8"/>
    <circle cx="1070" cy="278" r="8"/>
  </g>
</svg>
