<?xml version="1.0" encoding="UTF-8"?>
<svg width="1600" height="900" viewBox="0 0 1600 900" fill="none" xmlns="http://www.w3.org/2000/svg">
  <!-- Placeholder HERO AI (reemplaza por tu imagen real 1600x900) -->
  <defs>
    <linearGradient id="g1" x1="0" y1="0" x2="1" y2="1">
      <stop offset="0" stop-color="#00B8D9" stop-opacity="0.95"/>
      <stop offset="0.55" stop-color="#7C3AED" stop-opacity="0.90"/>
      <stop offset="1" stop-color="#0B1220" stop-opacity="1"/>
    </linearGradient>
    <radialGradient id="g2" cx="0.35" cy="0.35" r="0.9">
      <stop offset="0" stop-color="#FFFFFF" stop-opacity="0.16"/>
      <stop offset="1" stop-color="#FFFFFF" stop-opacity="0"/>
    </radialGradient>
    <filter id="blur" x="-30%" y="-30%" width="160%" height="160%">
      <feGaussianBlur stdDeviation="18"/>
    </filter>
  </defs>

  <rect width="1600" height="900" fill="url(#g1)"/>

  <g opacity="0.55">
    <circle cx="420" cy="250" r="210" fill="url(#g2)"/>
    <circle cx="1180" cy="620" r="260" fill="url(#g2)"/>
  </g>

  <!-- Neural-ish network -->
  <g opacity="0.32" stroke="#FFFFFF" stroke-width="2">
    <path d="M290 620 C 430 520, 520 430, 690 390" />
    <path d="M690 390 C 860 350, 980 270, 1140 210" />
    <path d="M520 720 C 650 640, 780 580, 980 540" />
    <path d="M980 540 C 1140 520, 1240 470, 1340 380" />
    <path d="M420 250 C 560 270, 650 320, 690 390" />
    <path d="M1180 620 C 1100 580, 1040 560, 980 540" />
  </g>

  <g opacity="0.65" fill="#FFFFFF">
    <circle cx="290" cy="620" r="8"/>
    <circle cx="520" cy="430" r="8"/>
    <circle cx="690" cy="390" r="10"/>
    <circle cx="980" cy="540" r="10"/>
    <circle cx="1140" cy="210" r="8"/>
    <circle cx="1340" cy="380" r="8"/>
    <circle cx="520" cy="720" r="8"/>
    <circle cx="1180" cy="620" r="10"/>
  </g>

  <!-- Subtle grid -->
  <g opacity="0.12" stroke="#FFFFFF" stroke-width="1">
    <path d="M0 120H1600" />
    <path d="M0 240H1600" />
    <path d="M0 360H1600" />
    <path d="M0 480H1600" />
    <path d="M0 600H1600" />
    <path d="M0 720H1600" />
    <path d="M120 0V900" />
    <path d="M240 0V900" />
    <path d="M360 0V900" />
    <path d="M480 0V900" />
    <path d="M600 0V900" />
    <path d="M720 0V900" />
    <path d="M840 0V900" />
    <path d="M960 0V900" />
    <path d="M1080 0V900" />
    <path d="M1200 0V900" />
    <path d="M1320 0V900" />
    <path d="M1440 0V900" />
  </g>

  <!-- AI label -->
  <g opacity="0.22" filter="url(#blur)">
    <text x="980" y="520" font-family="Inter, system-ui, -apple-system, Segoe UI, Roboto, Arial" font-size="220" font-weight="800" fill="#FFFFFF">AI</text>
  </g>
</svg>
