<svg xmlns="http://www.w3.org/2000/svg" width="1600" height="900" viewBox="0 0 1600 900">
  <defs>
    <linearGradient id="bg2" x1="0" x2="1" y1="0" y2="1">
      <stop offset="0" stop-color="#7C3AED" stop-opacity="0.20"/>
      <stop offset="0.55" stop-color="#00B8D9" stop-opacity="0.18"/>
      <stop offset="1" stop-color="#2563EB" stop-opacity="0.16"/>
    </linearGradient>
    <radialGradient id="glow2" cx="70%" cy="20%" r="70%">
      <stop offset="0" stop-color="#7C3AED" stop-opacity="0.24"/>
      <stop offset="1" stop-color="#FFFFFF" stop-opacity="0"/>
    </radialGradient>
  </defs>
  <rect width="1600" height="900" fill="#F6F8FC"/>
  <rect width="1600" height="900" fill="url(#glow2)"/>
  <rect x="90" y="120" width="1420" height="660" rx="40" fill="url(#bg2)" stroke="#0A0E1C" stroke-opacity="0.08"/>

  <g fill="#FFFFFF" opacity="0.88" stroke="#0A0E1C" stroke-opacity="0.10" stroke-width="3">
    <rect x="210" y="230" width="540" height="420" rx="28"/>
    <rect x="790" y="230" width="610" height="130" rx="28"/>
    <rect x="790" y="390" width="610" height="130" rx="28"/>
    <rect x="790" y="550" width="610" height="100" rx="28"/>
  </g>

  <g font-family="ui-monospace, SFMono-Regular, Menlo, Monaco, Consolas" font-weight="900" fill="#0A0E1C" fill-opacity="0.80" font-size="28">
    <text x="260" y="310">POST /v1/jobs</text>
    <text x="260" y="360">GET  /v1/status</text>
    <text x="260" y="410">PUT  /v1/config</text>
    <text x="260" y="500">Queues • Schedulers • Cron</text>

    <text x="840" y="310">Integraciones</text>
    <text x="840" y="470">Automatización</text>
    <text x="840" y="615">CI/CD</text>
  </g>

  <g fill="#00B8D9" opacity="0.95">
    <circle cx="1350" cy="295" r="10"/>
    <circle cx="1350" cy="455" r="10"/>
    <circle cx="1350" cy="595" r="10"/>
  </g>
</svg>
