<svg xmlns="http://www.w3.org/2000/svg" width="1600" height="900" viewBox="0 0 1600 900">
  <defs>
    <linearGradient id="g" x1="0" y1="0" x2="1" y2="1">
      <stop offset="0" stop-color="#1a1207"/>
      <stop offset="1" stop-color="#2a1a0b"/>
    </linearGradient>
    <radialGradient id="r" cx="70%" cy="40%" r="60%">
      <stop offset="0" stop-color="#f59e0b" stop-opacity="0.35"/>
      <stop offset="1" stop-color="#f59e0b" stop-opacity="0"/>
    </radialGradient>
    <filter id="blur" x="-20%" y="-20%" width="140%" height="140%">
      <feGaussianBlur stdDeviation="20"/>
    </filter>
  </defs>
  <rect width="1600" height="900" fill="url(#g)"/>
  <rect width="1600" height="900" fill="url(#r)"/>
  <g opacity="0.25">
    <path d="M0 720 C 320 560, 520 860, 840 700 S 1280 560, 1600 720" fill="none" stroke="#f59e0b" stroke-width="3"/>
    <path d="M0 770 C 320 610, 520 910, 840 750 S 1280 610, 1600 770" fill="none" stroke="#f59e0b" stroke-width="2"/>
    <path d="M0 820 C 320 660, 520 960, 840 800 S 1280 660, 1600 820" fill="none" stroke="#f59e0b" stroke-width="2"/>
  </g>
  <g filter="url(#blur)" opacity="0.9">
    <circle cx="1180" cy="260" r="120" fill="#f59e0b" opacity="0.18"/>
    <circle cx="1060" cy="340" r="90" fill="#f59e0b" opacity="0.12"/>
    <circle cx="1320" cy="380" r="140" fill="#f59e0b" opacity="0.10"/>
  </g>
  <g opacity="0.55">
    <rect x="980" y="440" rx="18" ry="18" width="520" height="54" fill="#ffffff" opacity="0.10"/>
    <rect x="980" y="510" rx="18" ry="18" width="420" height="54" fill="#ffffff" opacity="0.08"/>
    <rect x="980" y="580" rx="18" ry="18" width="480" height="54" fill="#ffffff" opacity="0.06"/>
  </g>
  <g font-family="Inter, system-ui, -apple-system, Segoe UI, Roboto, Arial" fill="#ffffff">
    <text x="88" y="120" font-size="18" letter-spacing="4" opacity="0.75">ARQUITECTURA TI</text>
    <text x="88" y="190" font-size="58" font-weight="800">Infra TI
lista para operar</text>
  </g>
</svg>