<svg xmlns="http://www.w3.org/2000/svg" width="1400" height="800" viewBox="0 0 1400 800">
  <defs>
    <linearGradient id="p1" x1="0" x2="1" y1="0" y2="1">
      <stop offset="0" stop-color="#00B8D9" stop-opacity="0.18"/>
      <stop offset="0.5" stop-color="#2563EB" stop-opacity="0.12"/>
      <stop offset="1" stop-color="#7C3AED" stop-opacity="0.14"/>
    </linearGradient>
  </defs>
  <rect width="1400" height="800" fill="#FFFFFF"/>
  <rect x="70" y="70" width="1260" height="660" rx="34" fill="url(#p1)" opacity="0.95" stroke="#0A0E1C" stroke-opacity="0.10"/>
  <g stroke="#0A0E1C" stroke-opacity="0.22" fill="none" stroke-width="4">
    <path d="M220 540C340 440 460 620 600 520C740 420 860 560 1020 470C1120 410 1190 430 1240 390"/>
    <path d="M240 340C360 300 450 380 560 340C690 290 820 340 940 290C1040 250 1140 260 1240 220"/>
  </g>
  <g fill="#0A0E1C" fill-opacity="0.88" font-family="system-ui, -apple-system, Segoe UI, Roboto" font-weight="950">
    <text x="150" y="200" font-size="54">Lakehouse</text>
    <text x="150" y="260" font-size="30" fill-opacity="0.62">Storage • Compute • Governance</text>
  </g>
  <g>
    <rect x="150" y="320" width="320" height="260" rx="24" fill="#FFFFFF" opacity="0.82" stroke="#0A0E1C" stroke-opacity="0.10"/>
    <rect x="520" y="320" width="320" height="260" rx="24" fill="#FFFFFF" opacity="0.82" stroke="#0A0E1C" stroke-opacity="0.10"/>
    <rect x="890" y="320" width="360" height="260" rx="24" fill="#FFFFFF" opacity="0.82" stroke="#0A0E1C" stroke-opacity="0.10"/>
  </g>
  <g font-family="ui-monospace, SFMono-Regular, Menlo, Monaco, Consolas" font-weight="900" fill="#0A0E1C" fill-opacity="0.86" font-size="26">
    <text x="190" y="380">Bronze</text>
    <text x="560" y="380">Silver</text>
    <text x="930" y="380">Gold</text>
  </g>
  <g fill="#00B8D9" opacity="0.95">
    <circle cx="310" cy="460" r="10"/>
    <circle cx="680" cy="460" r="10"/>
    <circle cx="1070" cy="460" r="10"/>
  </g>
</svg>
