<svg xmlns="http://www.w3.org/2000/svg" viewBox="0 0 32 32">
  <path d="M19.11 17.62c-.27-.14-1.6-.79-1.85-.88-.25-.09-.43-.14-.61.14-.18.27-.7.88-.86 1.06-.16.18-.31.2-.58.07-.27-.14-1.14-.42-2.18-1.34-.81-.72-1.36-1.6-1.52-1.87-.16-.27-.02-.42.12-.56.12-.12.27-.31.41-.46.14-.16.18-.27.27-.45.09-.18.04-.34-.02-.48-.07-.14-.61-1.47-.84-2.01-.22-.53-.45-.46-.61-.46h-.52c-.18 0-.48.07-.73.34-.25.27-.95.93-.95 2.26 0 1.33.97 2.61 1.11 2.79.14.18 1.9 2.91 4.6 4.08.64.28 1.14.45 1.53.58.64.2 1.22.17 1.68.1.51-.08 1.6-.65 1.83-1.28.22-.63.22-1.17.16-1.28-.07-.11-.25-.18-.52-.31ZM16.02 27.3h-.01a10.6 10.6 0 0 1-5.4-1.49l-.39-.23-4.02 1.05 1.07-3.92-.25-.4a10.57 10.57 0 0 1 1.6-12.96 10.56 10.56 0 0 1 17.97 7.47c0 5.84-4.76 10.58-10.57 10.58Zm8.99-19.56A12.7 12.7 0 0 0 16.02 3.7c-6.98 0-12.65 5.67-12.65 12.65 0 2.22.58 4.39 1.69 6.31L3.3 29.3l6.78-1.78a12.63 12.63 0 0 0 5.94 1.52h.01c6.98 0 12.65-5.67 12.65-12.65 0-3.38-1.32-6.56-3.67-8.65Z"/>
</svg>
